# xmcd
#
# Track frame offsets: 
#        150
#        9524
#        20894
#        31853
#        44826
#        54431
#        67688
#        77751
#        86915
#        96628
#
# Disc length: 1431 seconds
#
# Revision: 0
# Processed by: cddbd v1.5.2PL0 Copyright (c) Steve Scherf et al.
# Submitted via: ExactAudioCopyFreeDBPlugin 1.0
#
DISCID=8005950a
DTITLE=This is... Slim Sandy! - Slim Sandy
DYEAR=2005
DGENRE=Hillbilly
TTITLE0=Don't Need Nuthin'
TTITLE1=Seven Nights to Rock
TTITLE2=Come Back Baby
TTITLE3=Bicycle Boogie
TTITLE4=You Can't Fool Me
TTITLE5=Cabin by the Creek
TTITLE6=California Blues
TTITLE7=Down In Kokomo
TTITLE8=The Way You Dance
TTITLE9=Rock It All Night
EXTD=
EXTT0=
EXTT1=
EXTT2=
EXTT3=
EXTT4=
EXTT5=
EXTT6=
EXTT7=
EXTT8=
EXTT9=
PLAYORDER=
